<svg xmlns="http://www.w3.org/2000/svg" version="1.1" xmlns:xlink="http://www.w3.org/1999/xlink" width="512" height="512" x="0" y="0" viewBox="0 0 512 512" style="enable-background:new 0 0 512 512" xml:space="preserve"><defs><linearGradient id="a" x1="85.588" x2="426.412" y1="426.412" y2="85.587" gradientUnits="userSpaceOnUse"><stop offset="0" stop-color="#fc4422"></stop><stop offset="1" stop-color="#ffbb32"></stop></linearGradient></defs><g><linearGradient id="a" x1="85.588" x2="426.412" y1="426.412" y2="85.587" gradientUnits="userSpaceOnUse"><stop offset="0" stop-color="#fc4422"></stop><stop offset="1" stop-color="#ffbb32"></stop></linearGradient><path fill="url(&quot;#a&quot;)" d="M426.412 85.587C380.894 40.068 320.373 15 256 15S131.106 40.068 85.588 85.587C40.068 131.106 15 191.626 15 256c0 64.373 25.068 124.894 70.588 170.412C131.106 471.932 191.627 497 256 497s124.894-25.068 170.412-70.588C471.932 380.894 497 320.373 497 256c0-64.374-25.068-124.894-70.588-170.413zM256 465c-115.243 0-209-93.757-209-209S140.757 47 256 47s209 93.757 209 209-93.757 209-209 209zm107.829-339.978c-16.427-11.381-36.448-17.788-57.9-18.529-20.045-.686-40.431 3.522-59.016 12.185-33.357 15.552-56.636 11.64-83.382.295a16 16 0 0 0-22.248 14.73v125.699c0 27.34 22.244 49.582 49.586 49.582h15.545v72.213c0 27.341 22.244 49.585 49.585 49.585s49.585-22.244 49.585-49.585v-72.213h15.547c27.342 0 49.586-22.242 49.586-49.582V138.174a16.001 16.001 0 0 0-6.888-13.152zm-103.396 22.66c26.208-12.218 56.021-12.233 78.284-.525v48.74H173.283v-39.471c24.136 6.793 51.916 7.679 87.15-8.744zm60.698 129.301h-31.547c-8.837 0-16 7.163-16 16v88.213c0 9.696-7.889 17.585-17.585 17.585s-17.585-7.889-17.585-17.585v-88.213c0-8.837-7.163-16-16-16h-31.545c-9.697 0-17.586-7.888-17.586-17.582v-31.505h165.434v31.505c0 9.531-8.054 17.582-17.586 17.582z" opacity="1" data-original="url(#a)"></path></g></svg>