<svg width="54" height="54" viewBox="0 0 54 54" fill="none" xmlns="http://www.w3.org/2000/svg">
<path opacity="0.4" d="M36 4.5H18C9 4.5 4.5 9 4.5 18V47.25C4.5 48.4875 5.5125 49.5 6.75 49.5H36C45 49.5 49.5 45 49.5 36V18C49.5 9 45 4.5 36 4.5Z" fill="#7A7A7A"/>
<path d="M37.2377 16.7849C34.4027 13.9499 31.6577 13.8824 28.7552 16.7849L26.9777 18.5624C26.8202 18.7199 26.7753 18.9449 26.8203 19.1474C27.9228 23.0174 31.0052 26.0999 34.8752 27.2024C34.9202 27.2249 34.9877 27.2249 35.0552 27.2249C35.2127 27.2249 35.3702 27.1574 35.4827 27.0449L37.2377 25.2899C38.6777 23.8499 39.3752 22.4774 39.3752 21.0824C39.3752 19.6199 38.6777 18.2249 37.2377 16.7849Z" fill="#7A7A7A"/>
<path d="M32.265 28.5075C31.8375 28.305 31.4325 28.1025 31.05 27.855C30.735 27.675 30.42 27.4725 30.1275 27.2475C29.88 27.09 29.5875 26.865 29.295 26.6175C29.25 26.595 29.16 26.5275 29.0475 26.3925C28.575 25.9875 28.035 25.4475 27.54 24.885C27.495 24.8625 27.4275 24.75 27.3375 24.615C27.18 24.435 26.955 24.1425 26.73 23.8275C26.55 23.6025 26.3475 23.2875 26.1675 22.9725C25.9425 22.59 25.7175 22.185 25.5375 21.78C25.335 21.33 25.1775 20.925 25.02 20.52L16.5375 29.0025C15.975 29.565 15.4575 30.6 15.345 31.365L14.6925 36.045C14.535 37.035 14.8275 37.9575 15.435 38.5875C15.9525 39.105 16.6725 39.375 17.46 39.375C17.64 39.375 17.7975 39.3525 17.9775 39.33L22.6575 38.6775C23.4225 38.565 24.4575 38.0475 25.02 37.485L33.5025 29.0025C33.0975 28.845 32.6925 28.6875 32.265 28.5075Z" fill="#7A7A7A"/>
</svg>
