<svg width="201" height="200" viewBox="0 0 201 200" fill="none" xmlns="http://www.w3.org/2000/svg">
<path opacity="0.4" fill-rule="evenodd" clip-rule="evenodd" d="M100.249 18.7517C45.5408 18.7517 26.1575 40.0184 26.1575 100.01C26.1575 159.993 45.5408 181.26 100.249 181.26C154.949 181.26 174.341 159.993 174.341 100.01C174.341 40.0184 154.949 18.7517 100.249 18.7517Z" fill="#7A7A7A"/>
<path d="M70.0417 105.733H130.208C133.658 105.733 136.458 102.933 136.458 99.483C136.458 96.033 133.658 93.233 130.208 93.233H70.0417C66.5917 93.233 63.7917 96.033 63.7917 99.483C63.7917 102.933 66.5917 105.733 70.0417 105.733Z" fill="#7A7A7A"/>
<path d="M70.0417 137.058H130.208C133.658 137.058 136.458 134.258 136.458 130.808C136.458 127.358 133.658 124.558 130.208 124.558H70.0417C66.5917 124.558 63.7917 127.358 63.7917 130.808C63.7917 134.258 66.5917 137.058 70.0417 137.058Z" fill="#7A7A7A"/>
<path d="M93.0001 61.8914H70.0417C66.5917 61.8914 63.7917 64.6914 63.7917 68.1414C63.7917 71.5914 66.5917 74.3914 70.0417 74.3914H93.0001C96.4501 74.3914 99.2501 71.5914 99.2501 68.1414C99.2501 64.6914 96.4501 61.8914 93.0001 61.8914Z" fill="#7A7A7A"/>
</svg>
