<svg width="47" height="47" viewBox="0 0 47 47" fill="none" xmlns="http://www.w3.org/2000/svg">
<path opacity="0.4" d="M31.7057 3.9165H15.2949C8.16657 3.9165 3.91699 8.16609 3.91699 15.2944V31.6857C3.91699 38.8336 8.16657 43.0832 15.2949 43.0832H31.6862C38.8145 43.0832 43.0641 38.8336 43.0641 31.7053V15.2944C43.0837 8.16609 38.8341 3.9165 31.7057 3.9165Z" fill="#7A7A7A"/>
<path d="M30.5107 37.698C29.7078 37.698 29.042 37.0322 29.042 36.2293V28.5918C29.042 27.7889 29.7078 27.123 30.5107 27.123C31.3137 27.123 31.9795 27.7889 31.9795 28.5918V36.2293C31.9795 37.0322 31.3137 37.698 30.5107 37.698Z" fill="#7A7A7A"/>
<path d="M30.5107 16.0585C29.7078 16.0585 29.042 15.3927 29.042 14.5897V10.771C29.042 9.96808 29.7078 9.30225 30.5107 9.30225C31.3137 9.30225 31.9795 9.96808 31.9795 10.771V14.5897C31.9795 15.3927 31.3137 16.0585 30.5107 16.0585Z" fill="#7A7A7A"/>
<path d="M16.4893 37.6981C15.6863 37.6981 15.0205 37.0323 15.0205 36.2294V32.4106C15.0205 31.6077 15.6863 30.9419 16.4893 30.9419C17.2922 30.9419 17.958 31.6077 17.958 32.4106V36.2294C17.958 37.0323 17.3118 37.6981 16.4893 37.6981Z" fill="#7A7A7A"/>
<path d="M16.4893 19.8772C15.6863 19.8772 15.0205 19.2114 15.0205 18.4085V10.771C15.0205 9.96808 15.6863 9.30225 16.4893 9.30225C17.2922 9.30225 17.958 9.96808 17.958 10.771V18.4085C17.958 19.2114 17.3118 19.8772 16.4893 19.8772Z" fill="#7A7A7A"/>
<path d="M30.5113 14.3545C27.5738 14.3545 25.165 16.7437 25.165 19.6812C25.165 22.6187 27.5542 25.0274 30.5113 25.0274C33.4488 25.0274 35.838 22.6382 35.838 19.6812C35.838 16.7241 33.4488 14.3545 30.5113 14.3545Z" fill="#7A7A7A"/>
<path d="M16.4888 21.9922C13.5513 21.9922 11.1621 24.3814 11.1621 27.3384C11.1621 30.2955 13.5513 32.6651 16.4888 32.6651C19.4263 32.6651 21.835 30.2759 21.835 27.3384C21.835 24.4009 19.4459 21.9922 16.4888 21.9922Z" fill="#7A7A7A"/>
</svg>
