<svg xmlns="http://www.w3.org/2000/svg" version="1.1" xmlns:xlink="http://www.w3.org/1999/xlink" width="512" height="512" x="0" y="0" viewBox="0 0 24 24" style="enable-background:new 0 0 512 512" xml:space="preserve"><defs><linearGradient id="a" x1="12" x2="12" y1="2" y2="22" gradientUnits="userSpaceOnUse"><stop offset="0" stop-color="#bc78ec"></stop><stop offset="1" stop-color="#3b2667"></stop></linearGradient><linearGradient id="a" x1="12" x2="12" y1="2" y2="22" gradientUnits="userSpaceOnUse"><stop offset="0" stop-color="#bc78ec"></stop><stop offset="1" stop-color="#3b2667"></stop></linearGradient><linearGradient id="a" x1="12" x2="12" y1="2" y2="22" gradientUnits="userSpaceOnUse"><stop offset="0" stop-color="#bc78ec"></stop><stop offset="1" stop-color="#3b2667"></stop></linearGradient></defs><g><linearGradient id="a" x1="12" x2="12" y1="2" y2="22" gradientUnits="userSpaceOnUse"><stop offset="0" stop-color="#bc78ec"></stop><stop offset="1" stop-color="#3b2667"></stop></linearGradient><path fill="#BC78EC" d="M12 22a10 10 0 1 1 10-10 10.011 10.011 0 0 1-10 10zm0-18a8 8 0 1 0 8 8 8.01 8.01 0 0 0-8-8z" opacity="1" data-original="#bc78ec"></path><path d="M12 9.31a1 1 0 0 1 1 1v6.78a1 1 0 0 1-2 0v-6.78a1 1 0 0 1 1-1zM12 5.91a1 1 0 0 1 1 1 1 1 0 0 1-1 1 1 1 0 0 1-1-1 1 1 0 0 1 1-1z" fill="#000000" opacity="1" data-original="#000000"></path><g fill="url(&quot;#a&quot;)"><path d="M12 22a10 10 0 1 1 10-10 10.011 10.011 0 0 1-10 10zm0-18a8 8 0 1 0 8 8 8.01 8.01 0 0 0-8-8z" fill="url(&quot;#a&quot;)" opacity="1"></path><path d="M12 9.31a1 1 0 0 1 1 1v6.78a1 1 0 0 1-2 0v-6.78a1 1 0 0 1 1-1zM12 5.91a1 1 0 0 1 1 1 1 1 0 0 1-1 1 1 1 0 0 1-1-1 1 1 0 0 1 1-1z" fill="url(&quot;#a&quot;)" opacity="1"></path></g></g></svg>