<svg width="38" height="39" viewBox="0 0 38 39" fill="none" xmlns="http://www.w3.org/2000/svg">
<path opacity="0.4" d="M26.9744 0H11.0445C4.12506 0 0 4.23145 0 11.3294V27.6507C0 34.7681 4.12506 38.9996 11.0445 38.9996H26.9554C33.8749 38.9996 37.9999 34.7681 37.9999 27.6702V11.3294C38.0189 4.23145 33.8939 0 26.9744 0Z" fill="#7A7A7A"/>
<path d="M37.6958 3.0229C35.6998 8.11234 31.1756 14.7618 26.8414 19.1102C26.2141 15.0933 23.0965 11.9538 19.1426 11.3883C23.4007 6.94235 29.921 2.2234 34.9014 0.156428C35.7759 -0.194568 36.6693 0.0784289 37.2016 0.643923C37.7909 1.22892 38.057 2.12591 37.6958 3.0229Z" fill="#7A7A7A"/>
<path opacity="0.4" d="M26.8414 19.0906C26.081 19.8511 25.3206 20.5531 24.5982 21.138L21.6138 23.595C21.2336 23.868 20.8534 24.102 20.4352 24.297C20.4352 24.0045 20.3971 23.712 20.3781 23.4C20.2071 22.113 19.6368 20.8845 18.6103 19.8316C17.5647 18.7786 16.3101 18.1741 15.0365 17.9986C14.7323 17.9596 14.4092 17.9596 14.124 17.9596C14.2951 17.4721 14.5422 17.0236 14.8654 16.6531L17.2416 13.5916C17.8119 12.8506 18.4582 12.1096 19.1615 11.3687C23.0965 11.9341 26.2331 15.0931 26.8414 19.0906Z" fill="#7A7A7A"/>
<path d="M20.435 24.3168C20.435 26.0328 19.7887 27.6708 18.5911 28.8992C17.6596 29.8547 16.424 30.5177 14.9032 30.7127L11.1774 31.1417C9.14337 31.3757 7.3945 29.5817 7.62262 27.4758L8.04083 23.6538C8.40201 20.2413 11.1774 18.0574 14.1239 17.9989C14.409 17.9794 14.7322 17.9989 15.0363 18.0379C16.329 18.2134 17.5646 18.8179 18.6101 19.8708C19.6176 20.9043 20.2069 22.1523 20.378 23.4393C20.397 23.7318 20.435 24.0243 20.435 24.3168Z" fill="#7A7A7A"/>
</svg>
